HIERARCHY
ROOT Hips
{
	OFFSET -0.179506 -22.333345 2.821913
	CHANNELS 6 Xposition Yposition Zposition Zrotation Yrotation Xrotation 
	JOINT LeftUpLeg
	{
		OFFSET 6.951974 -9.140623 -0.681533
		CHANNELS 3 Zrotation Yrotation Xrotation
		JOINT LeftLeg
		{
			OFFSET 3.427654 -37.519855 -0.449580
			CHANNELS 3 Zrotation Yrotation Xrotation
			JOINT LeftFoot
			{
				OFFSET -1.359570 -39.796059 -4.369333
				CHANNELS 3 Zrotation Yrotation Xrotation
				JOINT LeftToe
				{
					OFFSET 2.635814 -5.579078 11.928840
					CHANNELS 3 Zrotation Yrotation Xrotation
					End Site
					{
						OFFSET 0.000000 0.000000 0.000000
					}
				}
			}
		}
	}
	JOINT RightUpLeg
	{
		OFFSET -6.767048 -9.052170 -0.431982
		CHANNELS 3 Zrotation Yrotation Xrotation
		JOINT RightLeg
		{
			OFFSET -3.829005 -38.256897 -0.885003
			CHANNELS 3 Zrotation Yrotation Xrotation
			JOINT RightFoot
			{
				OFFSET 1.577377 -39.841461 -4.231180
				CHANNELS 3 Zrotation Yrotation Xrotation
				JOINT RightToe
				{
					OFFSET -2.537174 -4.814398 12.334795
					CHANNELS 3 Zrotation Yrotation Xrotation
					End Site
					{
						OFFSET 0.000000 0.000000 0.000000
					}
				}
			}
		}
	}
	JOINT Spine
	{
		OFFSET -0.253288 10.896323 -2.669631
		CHANNELS 3 Zrotation Yrotation Xrotation
		JOINT Spine1
		{
			OFFSET 0.548704 13.518043 0.109247
			CHANNELS 3 Zrotation Yrotation Xrotation
			JOINT Spine2
			{
				OFFSET 0.145701 5.292222 2.542457
				CHANNELS 3 Zrotation Yrotation Xrotation
				JOINT Neck
				{
					OFFSET -0.277840 21.387037 -4.285703
					CHANNELS 3 Zrotation Yrotation Xrotation
					JOINT Head
					{
						OFFSET 0.515184 6.496960 5.134897
						CHANNELS 3 Zrotation Yrotation Xrotation
						End Site
						{
							OFFSET 0.000000 0.000000 0.000000
						}
					}
				}
				JOINT LeftShoulder
				{
					OFFSET 7.884473 12.174932 -3.408961
					CHANNELS 3 Zrotation Yrotation Xrotation
					JOINT LeftArm
					{
						OFFSET 9.097692 3.046888 -0.886815
						CHANNELS 3 Zrotation Yrotation Xrotation
						JOINT LeftForeArm
						{
							OFFSET 25.961220 -1.277207 -2.745643
							CHANNELS 3 Zrotation Yrotation Xrotation
							JOINT LeftHand
							{
								OFFSET 24.923361 0.898606 -0.117091
								CHANNELS 3 Zrotation Yrotation Xrotation
								End Site
								{
									OFFSET 0.000000 0.000000 0.000000
								}
							}
						}
					}
				}
				JOINT RightShoulder
				{
					OFFSET -8.175920 11.883285 -3.861528
					CHANNELS 3 Zrotation Yrotation Xrotation
					JOINT RightArm
					{
						OFFSET -9.601238 3.255117 -0.914307
						CHANNELS 3 Zrotation Yrotation Xrotation
						JOINT RightForeArm
						{
							OFFSET -25.374195 -1.332924 -2.140099
							CHANNELS 3 Zrotation Yrotation Xrotation
							JOINT RightHand
							{
								OFFSET -25.529810 0.777228 -0.555919
								CHANNELS 3 Zrotation Yrotation Xrotation
								End Site
								{
									OFFSET 0.000000 0.000000 0.000000
								}
							}
						}
					}
				}
			}
		}
	}
}
MOTION
Frames: 9
Frame Time: 0.033333
39.467239 32.428131 90.905739 -99.239246 1.568129 88.302475 16.372412 8.435307 1.062471 -6.022658 1.615750 22.215717 -1.317509 11.339302 -25.697674 nan nan nan -13.442483 -8.364920 -1.550563 5.244271 -2.362779 15.086720 4.224769 -2.984126 -21.999136 nan nan nan -3.730829 1.227212 3.266641 9.100455 -7.342418 9.173181 3.351655 0.225597 -9.270529 4.025862 -27.164006 7.450107 -0.313859 -23.407061 14.840100 -19.068232 -10.605894 3.725896 -53.787822 -51.772315 23.935565 145.632917 -64.477166 -119.367219 -5.739682 -21.487734 -2.959577 16.742259 1.023560 -3.410270 29.106625 6.316897 -10.837145 -95.055434 47.136987 -73.920693 3.416726 7.649575 -2.786450 
39.771564 32.565025 90.945061 -98.919520 1.648458 88.379992 16.345285 8.660713 1.638773 -5.674438 1.508486 20.069570 -1.239986 11.647801 -25.216803 nan nan nan -13.054678 -8.334956 -1.852609 5.071078 -2.484811 15.237290 4.210987 -3.191674 -21.903958 nan nan nan -3.859511 1.024182 3.133840 9.117298 -7.295068 9.089655 3.418825 0.220048 -9.286481 3.946926 -27.097483 7.514407 -0.261275 -23.364229 14.903677 -18.922430 -10.714050 3.568175 -53.790388 -52.197757 23.986421 145.503378 -64.652480 -119.272406 -5.779226 -21.478016 -2.925779 16.431554 0.855624 -3.449779 28.934840 6.329752 -10.900661 -94.972336 47.009269 -73.905881 3.410090 7.557244 -3.107457 
40.095028 32.701736 90.994667 -98.609178 1.693865 88.395364 16.360710 8.909313 2.182203 -5.459215 1.153124 18.185936 -1.116992 11.951910 -24.612032 nan nan nan -12.672215 -8.296030 -2.168200 4.862911 -2.520642 15.466333 4.175905 -3.477413 -21.862865 nan nan nan -4.001874 0.757555 3.260095 9.101687 -7.276270 8.895642 3.439560 0.228093 -9.383648 4.005582 -26.899307 7.455147 -0.336269 -23.345248 15.164265 -18.621747 -10.641179 3.213029 -53.940161 -52.453869 24.284760 145.370513 -64.727453 -118.836656 -5.496613 -21.329109 -3.068951 16.178828 0.650543 -3.591852 28.849668 6.488497 -10.658016 -94.790002 46.861347 -73.711323 3.340774 7.534468 -3.632833 
40.409901 32.830353 91.041809 -98.331196 1.689102 88.482953 16.341417 9.170767 2.615234 -5.304879 0.757342 16.554243 -1.110110 12.133476 -24.073395 nan nan nan -12.379947 -8.250967 -2.585702 4.712538 -2.569634 15.748553 4.103202 -3.754405 -21.877173 nan nan nan -4.246665 0.540479 3.105802 9.133078 -7.284391 8.896309 3.463211 0.207072 -9.439464 3.941940 -26.872829 7.475464 -0.370106 -23.195268 15.369480 -18.331479 -10.723306 3.024919 -54.002257 -52.652934 24.434217 145.169361 -64.625896 -118.395414 -5.434480 -21.221941 -3.484880 15.918043 0.417268 -4.095162 28.890711 6.684374 -10.234877 -94.544457 46.818414 -73.296926 3.311566 7.558367 -3.987244 
40.708424 32.965122 91.086113 -98.015766 1.727747 88.563805 16.405716 9.415843 2.887602 -5.216860 0.264227 15.338809 -1.155329 11.971752 -23.731176 nan nan nan -12.092401 -8.309015 -2.908094 4.616698 -2.661285 15.962481 4.100707 -3.930118 -21.890406 nan nan nan -4.489922 0.390812 2.913547 9.201802 -7.329618 8.769556 3.534420 0.160456 -9.311988 3.813332 -26.932150 7.567238 -0.356587 -23.080604 15.479876 -18.189569 -10.887256 3.074101 -53.935825 -53.035615 24.417788 144.854410 -64.789059 -118.484916 -4.983904 -21.398631 -3.622522 15.682259 0.277959 -4.493285 28.853145 6.824415 -10.138359 -94.400732 46.888335 -73.244172 3.126972 7.647272 -4.257963 
40.994049 33.077408 91.137978 -97.623087 1.779132 88.592947 16.483895 9.614573 2.943209 -5.125048 -0.518599 14.565694 -1.144333 11.782108 -23.441963 nan nan nan -11.870570 -8.407260 -3.061995 4.636874 -2.739380 16.019552 4.171504 -4.078411 -21.795451 nan nan nan -4.658592 0.215356 2.905148 9.236231 -7.416811 8.454399 3.572384 0.162055 -9.135269 3.710849 -27.058442 7.579928 -0.374082 -22.968813 15.719773 -17.997981 -11.045938 3.119388 -53.735189 -53.307941 24.332390 145.030714 -64.854457 -118.427064 -4.254524 -21.032313 -4.211301 15.448159 0.284400 -4.659143 28.836507 6.786465 -10.193318 -94.429476 46.869791 -73.394521 2.710548 7.610113 -4.882084 
41.273872 33.164230 91.193596 -97.279349 1.772633 88.668505 16.447523 9.643761 2.861084 -5.004909 -1.091168 13.926579 -1.180915 11.726731 -23.109834 nan nan nan -11.779699 -8.518753 -3.279752 4.721433 -2.948712 16.080082 4.232696 -4.039079 -21.685010 nan nan nan -4.893218 0.080660 2.782720 9.209118 -7.522747 8.344463 3.612925 0.213276 -9.118723 3.686575 -27.102252 7.569334 -0.351910 -23.011405 16.021696 -17.866020 -11.354867 3.236976 -53.407267 -53.628252 24.208044 144.565161 -64.956516 -118.388251 -4.223441 -21.432930 -4.348027 15.387117 0.411904 -4.651154 28.636128 6.486600 -10.267179 -94.447989 46.710736 -73.694187 2.662269 7.911362 -5.391374 
41.534786 33.250378 91.242973 -97.040384 1.710123 88.670447 16.424265 9.565794 2.890018 -4.996123 -1.415268 13.301351 -1.239911 11.840298 -22.769203 nan nan nan -11.762348 -8.603404 -3.425011 4.812338 -3.123032 16.094551 4.152799 -4.074497 -21.721172 nan nan nan -5.220636 -0.025127 2.767534 9.222880 -7.583220 8.272467 3.623523 0.333711 -9.068173 3.732472 -27.334832 7.250127 -0.337685 -22.883903 16.398739 -17.555492 -11.448190 3.272852 -53.475475 -53.937961 24.337404 144.704329 -64.849687 -117.924923 -4.219179 -21.203714 -4.679859 15.385469 0.207920 -4.793264 28.483262 6.560290 -10.181127 -94.416853 46.591603 -73.530233 2.937823 7.983123 -5.745669 
41.799965 33.334339 91.324989 -96.804678 1.616988 88.679452 16.396340 9.452527 2.845478 -4.904207 -1.558144 12.813965 -1.394909 11.751018 -22.341196 nan nan nan -11.730074 -8.582007 -3.614785 4.815877 -3.416828 16.086713 4.168045 -4.118699 -21.781211 nan nan nan -5.287537 -0.150191 2.803045 9.131010 -7.602655 8.112950 3.651427 -0.008781 -9.158072 3.416659 -27.010783 7.489420 -0.274366 -22.892362 16.335056 -17.526770 -11.112123 2.989482 -53.549770 -53.826139 24.412712 144.981172 -64.791363 -117.972590 -4.378977 -21.370830 -4.573231 15.112948 0.266389 -4.741207 28.787859 6.945010 -9.969805 -94.461556 46.488197 -73.330263 3.136864 8.158251 -5.881337 
